# xmcd
#
# Track frame offsets: 
#        150
#        12808
#        26138
#        46161
#        57363
#        76029
#        85798
#        103883
#        117588
#        133026
#        145245
#        160387
#        171683
#        185099
#
# Disc length: 2698 seconds
#
# Revision: 2
# Processed by: cddbd v1.5.2PL0 Copyright (c) Steve Scherf et al.
# Submitted via: ExactAudioCopy v0.99pb4
#
DISCID=c30a880e
DTITLE=Steve Wynn - Visitation Rights
DYEAR=2005
DGENRE=Blues
TTITLE0=My Family
TTITLE1=Gospel
TTITLE2=James River Incident
TTITLE3=Drought
TTITLE4=Anthem
TTITLE5=For All I Care
TTITLE6=Mandy Breakdown
TTITLE7=Riverside
TTITLE8=Follow Me
TTITLE9=Crawling Misanthropic Blues
TTITLE10=The Mask Of Shame
TTITLE11=Something To Remember Me By
TTITLE12=What We Call Love
TTITLE13=Epilogue
EXTD=YEAR: 2005
EXTT0=
EXTT1=
EXTT2=
EXTT3=
EXTT4=
EXTT5=
EXTT6=
EXTT7=
EXTT8=
EXTT9=
EXTT10=
EXTT11=
EXTT12=
EXTT13=
PLAYORDER=
